<svg width="24" height="25" viewBox="0 0 24 25" fill="none" xmlns="http://www.w3.org/2000/svg">
<path d="M10 6.36523V5.36523H14V6.36523H16V5.36523C15.9995 4.83496 15.7886 4.32656 15.4136 3.95161C15.0387 3.57665 14.5303 3.36576 14 3.36523H10C9.46973 3.36576 8.96133 3.57665 8.58637 3.95161C8.21141 4.32656 8.00053 4.83496 8 5.36523V6.36523H10Z" fill="#003EFF"/>
<path d="M9 15.3652C8.73478 15.3652 8.48043 15.2599 8.29289 15.0723C8.10536 14.8848 8 14.6305 8 14.3652V12.3652C8 12.1 8.10536 11.8457 8.29289 11.6581C8.48043 11.4706 8.73478 11.3652 9 11.3652C9.26522 11.3652 9.51957 11.4706 9.70711 11.6581C9.89464 11.8457 10 12.1 10 12.3652V14.3652C10 14.6305 9.89464 14.8848 9.70711 15.0723C9.51957 15.2599 9.26522 15.3652 9 15.3652ZM15 15.3652C14.7348 15.3652 14.4804 15.2599 14.2929 15.0723C14.1054 14.8848 14 14.6305 14 14.3652V12.3652C14 12.1 14.1054 11.8457 14.2929 11.6581C14.4804 11.4706 14.7348 11.3652 15 11.3652C15.2652 11.3652 15.5196 11.4706 15.7071 11.6581C15.8946 11.8457 16 12.1 16 12.3652V14.3652C16 14.6305 15.8946 14.8848 15.7071 15.0723C15.5196 15.2599 15.2652 15.3652 15 15.3652Z" fill="#83D8FF"/>
<path d="M20 6.36523H4C3.46957 6.36523 2.96086 6.57595 2.58579 6.95102C2.21071 7.32609 2 7.8348 2 8.36523V11.3652C2 11.8957 2.21071 12.4044 2.58579 12.7794C2.96086 13.1545 3.46957 13.3652 4 13.3652H8V12.3652C8 12.1 8.10536 11.8457 8.29289 11.6581C8.48043 11.4706 8.73478 11.3652 9 11.3652C9.26522 11.3652 9.51957 11.4706 9.70711 11.6581C9.89464 11.8457 10 12.1 10 12.3652V13.3652H14V12.3652C14 12.1 14.1054 11.8457 14.2929 11.6581C14.4804 11.4706 14.7348 11.3652 15 11.3652C15.2652 11.3652 15.5196 11.4706 15.7071 11.6581C15.8946 11.8457 16 12.1 16 12.3652V13.3652H20C20.5304 13.3652 21.0391 13.1545 21.4142 12.7794C21.7893 12.4044 22 11.8957 22 11.3652V8.36523C22 7.8348 21.7893 7.32609 21.4142 6.95102C21.0391 6.57595 20.5304 6.36523 20 6.36523Z" fill="#DAF0FA"/>
<path d="M20 13.3652H16V14.3652C16 14.6305 15.8946 14.8848 15.7071 15.0723C15.5196 15.2599 15.2652 15.3652 15 15.3652C14.7348 15.3652 14.4804 15.2599 14.2929 15.0723C14.1054 14.8848 14 14.6305 14 14.3652V13.3652H10V14.3652C10 14.6305 9.89464 14.8848 9.70711 15.0723C9.51957 15.2599 9.26522 15.3652 9 15.3652C8.73478 15.3652 8.48043 15.2599 8.29289 15.0723C8.10536 14.8848 8 14.6305 8 14.3652V13.3652H4C3.46957 13.3652 2.96086 13.1545 2.58579 12.7794C2.21071 12.4044 2 11.8957 2 11.3652V19.3652C2 19.8957 2.21071 20.4044 2.58579 20.7794C2.96086 21.1545 3.46957 21.3652 4 21.3652H20C20.5304 21.3652 21.0391 21.1545 21.4142 20.7794C21.7893 20.4044 22 19.8957 22 19.3652V11.3652C22 11.8957 21.7893 12.4044 21.4142 12.7794C21.0391 13.1545 20.5304 13.3652 20 13.3652Z" fill="#003EFF"/>
</svg>
