<svg width="24" height="24" viewBox="0 0 24 24" fill="none" xmlns="http://www.w3.org/2000/svg">
<path d="M16.7502 3.56V2C16.7502 1.59 16.4102 1.25 16.0002 1.25C15.5902 1.25 15.2502 1.59 15.2502 2V3.5H8.75023V2C8.75023 1.59 8.41023 1.25 8.00023 1.25C7.59023 1.25 7.25023 1.59 7.25023 2V3.56C4.55023 3.81 3.24023 5.42 3.04023 7.81C3.02023 8.1 3.26023 8.34 3.54023 8.34H20.4602C20.7502 8.34 20.9902 8.09 20.9602 7.81C20.7602 5.42 19.4502 3.81 16.7502 3.56Z" fill="#003EFF"/>
<path opacity="0.4" d="M20 9.84009C20.55 9.84009 21 10.2901 21 10.8401V17.0001C21 20.0001 19.5 22.0001 16 22.0001H8C4.5 22.0001 3 20.0001 3 17.0001V10.8401C3 10.2901 3.45 9.84009 4 9.84009H20Z" fill="#DAF0FA"/>
<path d="M8.5 15.0001C8.24 15.0001 7.98 14.8901 7.79 14.7101C7.61 14.5201 7.5 14.2601 7.5 14.0001C7.5 13.7401 7.61 13.4801 7.79 13.2901C8.07 13.0101 8.51 12.9201 8.88 13.0801C9.01 13.1301 9.12 13.2001 9.21 13.2901C9.39 13.4801 9.5 13.7401 9.5 14.0001C9.5 14.2601 9.39 14.5201 9.21 14.7101C9.02 14.8901 8.76 15.0001 8.5 15.0001Z" fill="#83D8FF"/>
<path d="M12 15.0001C11.74 15.0001 11.48 14.8901 11.29 14.7101C11.11 14.5201 11 14.2601 11 14.0001C11 13.7401 11.11 13.4801 11.29 13.2901C11.38 13.2001 11.49 13.1301 11.62 13.0801C11.99 12.9201 12.43 13.0101 12.71 13.2901C12.89 13.4801 13 13.7401 13 14.0001C13 14.2601 12.89 14.5201 12.71 14.7101L12.56 14.8301C12.5 14.8701 12.44 14.9001 12.38 14.9201C12.32 14.9501 12.26 14.9701 12.2 14.9801C12.13 14.9901 12.07 15.0001 12 15.0001Z" fill="#83D8FF"/>
<path d="M15.5 15C15.24 15 14.98 14.89 14.79 14.71C14.61 14.52 14.5 14.26 14.5 14C14.5 13.74 14.61 13.48 14.79 13.29C14.89 13.2 14.99 13.13 15.12 13.08C15.3 13 15.5 12.98 15.7 13.02C15.76 13.03 15.82 13.05 15.88 13.08C15.94 13.1 16 13.13 16.06 13.17L16.21 13.29C16.39 13.48 16.5 13.74 16.5 14C16.5 14.26 16.39 14.52 16.21 14.71L16.06 14.83C16 14.87 15.94 14.9 15.88 14.92C15.82 14.95 15.76 14.97 15.7 14.98C15.63 14.99 15.56 15 15.5 15Z" fill="#83D8FF"/>
<path d="M8.5 18.5C8.37 18.5 8.24 18.47 8.12 18.42C7.99 18.37 7.89 18.3 7.79 18.21C7.61 18.02 7.5 17.76 7.5 17.5C7.5 17.24 7.61 16.98 7.79 16.79C7.89 16.7 7.99 16.63 8.12 16.58C8.3 16.5 8.5 16.48 8.7 16.52C8.76 16.53 8.82 16.55 8.88 16.58C8.94 16.6 9 16.63 9.06 16.67L9.21 16.79C9.39 16.98 9.5 17.24 9.5 17.5C9.5 17.76 9.39 18.02 9.21 18.21C9.16 18.25 9.11 18.3 9.06 18.33C9 18.37 8.94 18.4 8.88 18.42C8.82 18.45 8.76 18.47 8.7 18.48C8.63 18.49 8.57 18.5 8.5 18.5Z" fill="#83D8FF"/>
<path d="M12 18.5C11.74 18.5 11.48 18.3899 11.29 18.2099C11.11 18.0199 11 17.76 11 17.5C11 17.24 11.11 16.98 11.29 16.79C11.66 16.42 12.34 16.42 12.71 16.79C12.89 16.98 13 17.24 13 17.5C13 17.76 12.89 18.0199 12.71 18.2099C12.52 18.3899 12.26 18.5 12 18.5Z" fill="#83D8FF"/>
<path d="M15.5 18.5C15.24 18.5 14.98 18.3899 14.79 18.2099C14.61 18.0199 14.5 17.76 14.5 17.5C14.5 17.24 14.61 16.98 14.79 16.79C15.16 16.42 15.84 16.42 16.21 16.79C16.39 16.98 16.5 17.24 16.5 17.5C16.5 17.76 16.39 18.0199 16.21 18.2099C16.02 18.3899 15.76 18.5 15.5 18.5Z" fill="#83D8FF"/>
</svg>
