<svg width="24" height="25" viewBox="0 0 24 25" fill="none" xmlns="http://www.w3.org/2000/svg">
<rect x="2" y="2.36523" width="20" height="20" rx="3" fill="#003EFF"/>
<path d="M10.1999 16.7653C10.0686 16.7654 9.93851 16.7396 9.81719 16.6893C9.69586 16.639 9.58566 16.5652 9.49292 16.4723L6.29292 13.2723C6.11076 13.0836 6.00997 12.831 6.01224 12.5688C6.01452 12.3067 6.11969 12.0558 6.3051 11.8704C6.49051 11.685 6.74132 11.5799 7.00352 11.5776C7.26571 11.5753 7.51832 11.6761 7.70692 11.8583L10.1999 14.3513L16.2929 8.25825C16.4815 8.07609 16.7341 7.9753 16.9963 7.97758C17.2585 7.97986 17.5093 8.08502 17.6947 8.27043C17.8801 8.45584 17.9853 8.70665 17.9876 8.96885C17.9899 9.23105 17.8891 9.48365 17.7069 9.67225L10.9069 16.4723C10.8142 16.5652 10.704 16.639 10.5827 16.6893C10.4613 16.7396 10.3313 16.7654 10.1999 16.7653Z" fill="#DAF0FA"/>
</svg>
