<svg width="24" height="25" viewBox="0 0 24 25" fill="none" xmlns="http://www.w3.org/2000/svg">
<path d="M19 6.36548H10V19.3655H19V6.36548Z" fill="#DAF0FA"/>
<path d="M19.2 6.38544L9.2 4.38544C9.05469 4.35578 8.90461 4.35881 8.76062 4.39431C8.61662 4.42981 8.48233 4.4969 8.36747 4.5907C8.2526 4.68451 8.16004 4.80269 8.09648 4.93669C8.03293 5.07068 7.99997 5.21713 8 5.36544V10.3654H5C4.73478 10.3654 4.48043 10.4708 4.29289 10.6583C4.10536 10.8459 4 11.1002 4 11.3654V19.3654C4 19.6307 4.10536 19.885 4.29289 20.0725C4.48043 20.2601 4.73478 20.3654 5 20.3654H19C19.2652 20.3654 19.5196 20.2601 19.7071 20.0725C19.8946 19.885 20 19.6307 20 19.3654V7.36544C20 7.13491 19.9204 6.91144 19.7747 6.73286C19.6289 6.55427 19.4259 6.43154 19.2 6.38544ZM10 18.3654H6V16.3654H10V18.3654ZM10 14.3654H6V12.3654H10V14.3654ZM18 18.3654H12V11.3654C12 11.1002 11.8946 10.8459 11.7071 10.6583C11.5196 10.4708 11.2652 10.3654 11 10.3654H10V6.58544L18 8.18544V18.3654Z" fill="#003EFF"/>
<path d="M16 10.3655H14V16.3655H16V10.3655Z" fill="#003EFF"/>
</svg>
