<svg width="24" height="25" viewBox="0 0 24 25" fill="none" xmlns="http://www.w3.org/2000/svg">
<path d="M12 2.31519C6.48 2.31519 2 6.79519 2 12.3152C2 17.8352 6.48 22.3152 12 22.3152H17V20.3152H12C7.66 20.3152 4 16.6552 4 12.3152C4 7.97519 7.66 4.31519 12 4.31519C16.34 4.31519 20 7.97519 20 12.3152V13.7452C20 14.5352 19.29 15.3152 18.5 15.3152C17.71 15.3152 17 14.5352 17 13.7452V12.3152C17 9.55519 14.76 7.31519 12 7.31519C9.24 7.31519 7 9.55519 7 12.3152C7 15.0752 9.24 17.3152 12 17.3152C13.38 17.3152 14.64 16.7552 15.54 15.8452C16.19 16.7352 17.31 17.3152 18.5 17.3152C20.47 17.3152 22 15.7152 22 13.7452V12.3152C22 6.79519 17.52 2.31519 12 2.31519ZM12 15.3152C10.34 15.3152 9 13.9752 9 12.3152C9 10.6552 10.34 9.31519 12 9.31519C13.66 9.31519 15 10.6552 15 12.3152C15 13.9752 13.66 15.3152 12 15.3152Z" fill="#003EFF"/>
</svg>
