<svg width="24" height="25" viewBox="0 0 24 25" fill="none" xmlns="http://www.w3.org/2000/svg">
<path d="M2 23.3652H22C22.5523 23.3652 23 22.9175 23 22.3652C23 21.8129 22.5523 21.3652 22 21.3652H2C1.44772 21.3652 1 21.8129 1 22.3652C1 22.9175 1.44772 23.3652 2 23.3652Z" fill="#003EFF"/>
<path d="M21 10.5272V21.3652H3L3.04986 10.5176C3.04986 9.93101 3.32909 9.37325 3.81773 9.00781L10.7983 3.77635C11.5163 3.2282 12.5335 3.2282 13.2515 3.77635L20.2321 9.00781C20.7208 9.37325 21 9.93101 21 10.5272Z" fill="#DAF0FA"/>
<path d="M13.5 8.61523H10.5C10.09 8.61523 9.75 8.27523 9.75 7.86523C9.75 7.45523 10.09 7.11523 10.5 7.11523H13.5C13.91 7.11523 14.25 7.45523 14.25 7.86523C14.25 8.27523 13.91 8.61523 13.5 8.61523Z" fill="#83D8FF"/>
<path d="M15.5 11.3652H8.5C7.67 11.3652 7 12.0352 7 12.8652V22.3652H17V12.8652C17 12.0352 16.33 11.3652 15.5 11.3652ZM10.75 18.1152C10.75 18.5252 10.41 18.8652 10 18.8652C9.59 18.8652 9.25 18.5252 9.25 18.1152V16.6152C9.25 16.2052 9.59 15.8652 10 15.8652C10.41 15.8652 10.75 16.2052 10.75 16.6152V18.1152Z" fill="#003EFF"/>
</svg>
