<svg width="24" height="25" viewBox="0 0 24 25" fill="none" xmlns="http://www.w3.org/2000/svg">
<path opacity="0.4" d="M22 9.36523V16.8252C22 19.1152 20.14 20.9652 17.85 20.9652H6.15C3.86 20.9652 2 19.1152 2 16.8252V9.36523H22Z" fill="#DAF0FA"/>
<path d="M22 7.90318V9.36318H2V7.90318C2 5.61318 3.86 3.76318 6.15 3.76318H17.85C20.14 3.76318 22 5.61318 22 7.90318Z" fill="#003EFF"/>
<path d="M8 17.6152H6C5.59 17.6152 5.25 17.2752 5.25 16.8652C5.25 16.4552 5.59 16.1152 6 16.1152H8C8.41 16.1152 8.75 16.4552 8.75 16.8652C8.75 17.2752 8.41 17.6152 8 17.6152Z" fill="#83D8FF"/>
<path d="M14.5 17.6152H10.5C10.09 17.6152 9.75 17.2752 9.75 16.8652C9.75 16.4552 10.09 16.1152 10.5 16.1152H14.5C14.91 16.1152 15.25 16.4552 15.25 16.8652C15.25 17.2752 14.91 17.6152 14.5 17.6152Z" fill="#83D8FF"/>
</svg>
