<svg width="24" height="25" viewBox="0 0 24 25" fill="none" xmlns="http://www.w3.org/2000/svg">
<path d="M12 2.36523C8.13 2.36523 5 5.49523 5 9.36523C5 11.1052 5.5 12.7352 6.41 14.2052C7.36 15.7452 8.61 17.0652 9.57 18.6052C10.04 19.3552 10.38 20.0552 10.74 20.8652C11 21.4152 11.21 22.3652 12 22.3652C12.79 22.3652 13 21.4152 13.25 20.8652C13.62 20.0552 13.95 19.3552 14.42 18.6052C15.38 17.0752 16.63 15.7552 17.58 14.2052C18.5 12.7352 19 11.1052 19 9.36523C19 5.49523 15.87 2.36523 12 2.36523Z" fill="#003EFF"/>
<path d="M10.2322 11.383C10.7011 11.8518 11.337 12.1152 12 12.1152C12.663 12.1152 13.2989 11.8518 13.7678 11.383C14.2366 10.9142 14.5 10.2783 14.5 9.61523C14.5 8.95219 14.2366 8.31631 13.7678 7.84747C13.2989 7.37863 12.663 7.11523 12 7.11523C11.337 7.11523 10.7011 7.37863 10.2322 7.84747C9.76339 8.31631 9.5 8.95219 9.5 9.61523C9.5 10.2783 9.76339 10.9142 10.2322 11.383Z" fill="#DAF0FA"/>
</svg>
