<svg width="24" height="25" viewBox="0 0 24 25" fill="none" xmlns="http://www.w3.org/2000/svg">
<path d="M6 10.3652V8.36523C6 5.05523 7 2.36523 12 2.36523C17 2.36523 18 5.05523 18 8.36523V10.3652" stroke="#003EFF" stroke-width="2" stroke-linecap="round" stroke-linejoin="round"/>
<path d="M22 15.3652V17.3652C22 21.3652 21 22.3652 17 22.3652H7C3 22.3652 2 21.3652 2 17.3652V15.3652C2 12.0252 2.7 10.7752 5.25 10.4652C5.69 10.4052 6.19 10.3752 6.75 10.3652H17.25C17.81 10.3752 18.31 10.4052 18.75 10.4652C21.3 10.7752 22 12.0252 22 15.3652Z" fill="#DAF0FA"/>
<path d="M8 17.3641C7.87 17.3641 7.74 17.3341 7.62 17.2841C7.49 17.2341 7.39 17.1641 7.29 17.0741C7.11 16.8841 7 16.6241 7 16.3641C7 16.2341 7.03 16.1041 7.08 15.9841C7.13 15.8641 7.2 15.7541 7.29 15.6541C7.39 15.5641 7.49 15.4941 7.62 15.4441C7.99 15.2841 8.43 15.3741 8.71 15.6541C8.8 15.7541 8.87 15.8641 8.92 15.9841C8.97 16.1041 9 16.2341 9 16.3641C9 16.6241 8.89 16.8841 8.71 17.0741C8.52 17.2541 8.26 17.3641 8 17.3641Z" fill="#003EFF"/>
<path d="M12 17.3652C11.73 17.3652 11.48 17.2552 11.29 17.0752C11.2 16.9752 11.13 16.8652 11.08 16.7452C11.0286 16.625 11.0015 16.4959 11 16.3652C11 16.0952 11.11 15.8452 11.29 15.6552C11.66 15.2852 12.33 15.2852 12.71 15.6552C12.89 15.8452 13 16.0952 13 16.3652C13 16.4952 12.97 16.6252 12.92 16.7452C12.87 16.8652 12.8 16.9752 12.71 17.0752C12.52 17.2552 12.26 17.3652 12 17.3652Z" fill="#003EFF"/>
<path d="M16 17.3652C15.74 17.3652 15.48 17.2552 15.29 17.0752C15.11 16.8852 15 16.6352 15 16.3652C15 16.0952 15.11 15.8452 15.29 15.6552C15.67 15.2852 16.34 15.2852 16.71 15.6552C16.75 15.7052 16.79 15.7552 16.83 15.8152C16.87 15.8652 16.9 15.9252 16.92 15.9852C16.95 16.0452 16.97 16.1052 16.98 16.1652C16.99 16.2352 17 16.3052 17 16.3652C17 16.6252 16.89 16.8852 16.71 17.0752C16.52 17.2552 16.26 17.3652 16 17.3652Z" fill="#003EFF"/>
</svg>
