<svg width="24" height="24" viewBox="0 0 24 24" fill="none" xmlns="http://www.w3.org/2000/svg">
<path d="M19.3 7.92002V13.07C19.3 16.15 17.54 17.47 14.9 17.47H6.10996C5.65996 17.47 5.22996 17.43 4.82996 17.34C4.57996 17.3 4.33996 17.23 4.11996 17.15C2.61996 16.59 1.70996 15.29 1.70996 13.07V7.92002C1.70996 4.84002 3.46996 3.52002 6.10996 3.52002H14.9C17.14 3.52002 18.75 4.47002 19.18 6.64002C19.25 7.04002 19.3 7.45002 19.3 7.92002Z" fill="#DAF0FA"/>
<path d="M22.3001 10.9201V16.0701C22.3001 19.1501 20.5401 20.4701 17.9001 20.4701H9.11008C8.37008 20.4701 7.70008 20.3701 7.12008 20.1501C5.93008 19.7101 5.12008 18.8001 4.83008 17.3401C5.23008 17.4301 5.66008 17.4701 6.11008 17.4701H14.9001C17.5401 17.4701 19.3001 16.1501 19.3001 13.0701V7.92014C19.3001 7.45014 19.2601 7.03014 19.1801 6.64014C21.0801 7.04014 22.3001 8.38014 22.3001 10.9201Z" fill="#003EFF"/>
<path d="M10.4999 13.1401C11.2 13.1401 11.8715 12.862 12.3666 12.3669C12.8617 11.8718 13.1399 11.2003 13.1399 10.5001C13.1399 9.79994 12.8617 9.12844 12.3666 8.63335C11.8715 8.13825 11.2 7.86011 10.4999 7.86011C9.79969 7.86011 9.1282 8.13825 8.6331 8.63335C8.138 9.12844 7.85986 9.79994 7.85986 10.5001C7.85986 11.2003 8.138 11.8718 8.6331 12.3669C9.1282 12.862 9.79969 13.1401 10.4999 13.1401Z" fill="#003EFF"/>
<path d="M4.77979 8.25C4.36979 8.25 4.02979 8.59 4.02979 9V12C4.02979 12.41 4.36979 12.75 4.77979 12.75C5.18979 12.75 5.52979 12.41 5.52979 12V9C5.52979 8.59 5.19979 8.25 4.77979 8.25Z" fill="#003EFF"/>
<path d="M16.21 8.25C15.8 8.25 15.46 8.59 15.46 9V12C15.46 12.41 15.8 12.75 16.21 12.75C16.62 12.75 16.96 12.41 16.96 12V9C16.96 8.59 16.63 8.25 16.21 8.25Z" fill="#003EFF"/>
</svg>
