<svg width="24" height="25" viewBox="0 0 24 25" fill="none" xmlns="http://www.w3.org/2000/svg">
<path d="M9 2.36523H15C16.3259 2.36576 17.5974 2.89272 18.535 3.83029C19.4725 4.76786 19.9995 6.03931 20 7.36523V17.3652C19.9995 18.6912 19.4725 19.9626 18.535 20.9002C17.5974 21.8378 16.3259 22.3647 15 22.3652H9C7.67408 22.3647 6.40262 21.8378 5.46506 20.9002C4.52749 19.9626 4.00053 18.6912 4 17.3652V7.36523C4.00053 6.03931 4.52749 4.76786 5.46506 3.83029C6.40262 2.89272 7.67408 2.36576 9 2.36523Z" fill="#DAF0FA"/>
<path d="M10.313 19.1133H13.703C13.9019 19.1133 14.0927 19.0343 14.2333 18.8936C14.374 18.753 14.453 18.5622 14.453 18.3633C14.453 18.1644 14.374 17.9736 14.2333 17.8329C14.0927 17.6923 13.9019 17.6133 13.703 17.6133H10.313C10.1141 17.6133 9.92331 17.6923 9.78265 17.8329C9.642 17.9736 9.56299 18.1644 9.56299 18.3633C9.56299 18.5622 9.642 18.753 9.78265 18.8936C9.92331 19.0343 10.1141 19.1133 10.313 19.1133Z" fill="#003EFF"/>
</svg>
