<svg width="24" height="25" viewBox="0 0 24 25" fill="none" xmlns="http://www.w3.org/2000/svg">
<path d="M12 12.3652C13.3261 12.3652 14.5979 11.8385 15.5355 10.9008C16.4732 9.96309 17 8.69132 17 7.36523C17 6.03915 16.4732 4.76738 15.5355 3.8297C14.5979 2.89202 13.3261 2.36523 12 2.36523C10.6739 2.36523 9.40215 2.89202 8.46447 3.8297C7.52678 4.76738 7 6.03915 7 7.36523C7 8.69132 7.52678 9.96309 8.46447 10.9008C9.40215 11.8385 10.6739 12.3652 12 12.3652Z" fill="#DAF0FA"/>
<path d="M12.0002 14.8652C6.99016 14.8652 2.91016 18.2252 2.91016 22.3652C2.91016 22.6452 3.13016 22.8652 3.41016 22.8652H20.5902C20.8702 22.8652 21.0902 22.6452 21.0902 22.3652C21.0902 18.2252 17.0102 14.8652 12.0002 14.8652Z" fill="#003EFF"/>
</svg>
